<?xml version="1.0" encoding="UTF-8"?> <svg xmlns="http://www.w3.org/2000/svg" viewBox="0 0 207.2 207.2"><g id="Layer_2" data-name="Layer 2"><g id="She_Codes_copy" data-name="She{Codes) copy"><circle cx="103.6" cy="103.6" r="103.6" fill="#8246af"></circle><path d="M34.07,87.61c4.6,0,7,2.74,7,7.55v1H36.56V94.86c0-2.15-.85-3-2.36-3s-2.36.81-2.36,3,.95,3.82,4,6.53c3.95,3.48,5.19,6,5.19,9.4,0,4.81-2.4,7.56-7,7.56s-7-2.75-7-7.56V109h4.46v2.14c0,2.15.95,2.92,2.45,2.92s2.45-.77,2.45-2.92-1-3.82-4-6.52c-4-3.48-5.19-6-5.19-9.41C27.12,90.35,29.48,87.61,34.07,87.61Z" fill="#fff"></path><path d="M48.5,118H43.78V88H48.5v12.88h5.37V88h4.81V118H53.87V105.12H48.5Z" fill="#fff"></path><path d="M66.83,100.62h6.48v4.29H66.83v8.8H75V118H62.11V88H75v4.29H66.83Z" fill="#fff"></path><path d="M83.36,106.8l.22,4.29c.12,2.36.77,3,2.27,3h.69V118H84.13c-2.66,0-4.55-1.51-4.76-4.77L79,107.49c-.13-2-.55-2.58-2.36-2.58v-3.86c1.81,0,2.23-.61,2.36-2.58l.35-5.76c.21-3.26,2.1-4.76,4.76-4.76h2.41v3.86h-.69c-1.5,0-2.15.69-2.27,3l-.22,4.3c-.09,1.59-.6,3.26-2.79,3.82C82.76,103.54,83.27,105.21,83.36,106.8Z" fill="#f9a426"></path><path d="M102.64,106.8v4c0,4.81-2.41,7.56-7,7.56s-7-2.75-7-7.56V95.16c0-4.81,2.41-7.55,7-7.55s7,2.74,7,7.55v2.92H98.17V94.86c0-2.15-.94-3-2.45-3s-2.44.81-2.44,3v16.23c0,2.15.94,2.92,2.44,2.92s2.45-.77,2.45-2.92V106.8Z" fill="#f9a426"></path><path d="M105.13,95.16c0-4.81,2.53-7.55,7.17-7.55s7.17,2.74,7.17,7.55v15.63c0,4.81-2.54,7.56-7.17,7.56s-7.17-2.75-7.17-7.56Zm4.72,15.93c0,2.15.94,3,2.45,3s2.44-.82,2.44-3V94.86c0-2.15-.94-3-2.44-3s-2.45.81-2.45,3Z" fill="#f9a426"></path><path d="M122.51,88H130c4.73,0,7.05,2.62,7.05,7.43v15.2c0,4.81-2.32,7.43-7.05,7.43h-7.47Zm4.73,4.29v21.47h2.66c1.5,0,2.4-.77,2.4-2.92V95.16c0-2.14-.9-2.92-2.4-2.92Z" fill="#f9a426"></path><path d="M144.75,100.62h6.49v4.29h-6.49v8.8h8.16V118H140V88h12.88v4.29h-8.16Z" fill="#f9a426"></path><path d="M162.18,87.61c4.6,0,7,2.74,7,7.55v1h-4.46V94.86c0-2.15-.86-3-2.37-3s-2.36.81-2.36,3,1,3.82,4,6.53c3.95,3.48,5.19,6,5.19,9.4,0,4.81-2.4,7.56-7,7.56s-7-2.75-7-7.56V109h4.47v2.14c0,2.15.94,2.92,2.44,2.92s2.45-.77,2.45-2.92-.94-3.82-4-6.52c-3.95-3.48-5.19-6-5.19-9.41C155.23,90.35,157.59,87.61,162.18,87.61Z" fill="#f9a426"></path><path d="M174,99.16l-.21-4.3c-.13-2.36-.77-3-2.28-3h-.68V88h2.4c2.66,0,4.55,1.5,4.77,4.76l.34,5.76c.13,2,.56,2.58,2.36,2.58v3.86c-1.8,0-2.23.6-2.36,2.58l-.34,5.75c-.22,3.26-2.11,4.77-4.77,4.77h-2.4v-3.87h.68c1.51,0,2.15-.69,2.28-3l.21-4.29c.09-1.59.61-3.26,2.79-3.82C174.64,102.42,174.12,100.75,174,99.16Z" fill="#f9a426"></path></g></g></svg> 