<?xml version="1.0" encoding="utf-8"?>
<!-- Generator: Adobe Illustrator 25.4.1, SVG Export Plug-In . SVG Version: 6.00 Build 0)  -->
<svg version="1.1" id="logo_mauril_2" xmlns="http://www.w3.org/2000/svg" xmlns:xlink="http://www.w3.org/1999/xlink" x="0px"
	 y="0px" viewBox="0 0 117.5 128.4" style="enable-background:new 0 0 117.5 128.4;" width="126" height="138" xml:space="preserve">
<style type="text/css">
	.st0{fill:#FFFFFF;}
	.st1{fill:#8EECE3;}
	.st2{fill:#0E3786;}
</style>
<path id="_8cf12d7c-17b7-40a5-9b99-bc5c3592d029" class="st0" d="M104.7,118.1c-2.4,0-4.3-1.9-4.3-4.3s1.9-4.3,4.3-4.3
	s4.3,1.9,4.3,4.3S107.1,118.1,104.7,118.1L104.7,118.1 M95.5,113.8c0,2.4,1.9,4.3,4.3,4.3v-8.6C97.4,109.5,95.5,111.4,95.5,113.8
	 M109.7,109.5v8.6c2.4,0,4.3-1.9,4.3-4.3S112,109.5,109.7,109.5 M104.7,123c2.4,0,4.3-1.9,4.3-4.3c0,0,0,0,0,0h-8.6
	C100.5,121.1,102.4,123,104.7,123 M100.5,108.9h8.6c0-2.4-1.9-4.3-4.3-4.3S100.5,106.5,100.5,108.9L100.5,108.9 M95.7,108.9h4.1
	v-4.1C97.6,104.8,95.7,106.6,95.7,108.9 M109.7,104.8v4.1h4.1C113.7,106.6,111.9,104.8,109.7,104.8L109.7,104.8 M95.7,118.7
	c0,2.2,1.8,4.1,4.1,4.1v-4.1L95.7,118.7 M109.7,122.8c2.2,0,4.1-1.8,4.1-4.1h-4.1V122.8 M114.6,117.5c2-1.2,2.7-3.8,1.5-5.9
	c-0.4-0.6-0.9-1.1-1.5-1.5V117.5 M94.9,110.1c-2,1.2-2.7,3.8-1.5,5.9c0.4,0.6,0.9,1.1,1.5,1.5V110.1 M108.4,103.9
	c-1.2-2-3.8-2.7-5.9-1.5c-0.6,0.4-1.1,0.9-1.5,1.5H108.4 M101.1,123.7c1.2,2,3.8,2.7,5.9,1.5c0.6-0.4,1.1-0.9,1.5-1.5H101.1"/>
<path id="Tracé_10905" class="st1" d="M117.5,54.6C117.5,24.5,92.2,0,61.1,0C29.9,0,1.8,20.7,0.2,55.9
	c-1.1,15.7,1.1,36.5,25.9,69.5c2.6,3.5,4.1,4.1,6.7,0.7c7.6-9.9,9.2-14.2,12.4-18.3c5.2,1.1,10.5,1.6,15.9,1.4
	C92.2,108,117.5,84.8,117.5,54.6z"/>
<g id="Groupe_1097" transform="translate(16.048 17.27)">
	<path id="Tracé_10906" class="st2" d="M30.5,36.4c0-1.9-1.6-3.5-3.5-3.5s-3.5,1.6-3.5,3.5c0,1.9,1.6,3.5,3.5,3.5c0,0,0,0,0,0
		C28.9,39.9,30.5,38.4,30.5,36.4z"/>
	<path id="Tracé_10907" class="st2" d="M59.2,32.9c-1.9,0-3.5,1.6-3.5,3.5c0,1.9,1.6,3.5,3.5,3.5c1.9,0,3.5-1.6,3.5-3.5
		C62.7,34.5,61.2,32.9,59.2,32.9z"/>
	<path id="Tracé_10908" class="st2" d="M43.1,41.6c0,3.3-0.7,5.3-4.2,5.3c-1,0-2-0.1-3.1-0.2l-0.5-0.1v4.2l0.3,0.1
		c1.2,0.2,2.4,0.3,3.7,0.3c6.3,0,9.1-3,9.1-9.8V21.8h-5.3V41.6z"/>
	<path id="Tracé_10909" class="st2" d="M26.6,54.6L26,54.3l-0.3,4.4l0.2,0.1c3.5,2.8,7.4,5.3,11.5,7.2l0.6,0.3l0.4-6.5L38,59.8
		C34.1,58.4,30.3,56.7,26.6,54.6z"/>
	<path id="Tracé_10910" class="st2" d="M12.1,9.3c-1.3,0.5-2.4,1.3-3.1,2.5c-1.1,1.7-1.8,3.6-2,5.6c-0.2,1.4-0.3,4.1-0.3,8.2
		C6.8,28.5,6.5,31.3,6,34c-0.6,2.6-2.9,4.4-5.6,4.3l-0.4,0v6.3l0.4,0c1.3,0,2.5,0.4,3.5,1.1c1,0.8,1.7,1.9,2,3.2
		c0.6,2.8,0.8,5.6,0.7,8.4c-0.1,3.2,0.1,6.3,0.5,9.4c0.3,1.7,0.9,3.3,2,4.6c0.8,1,1.8,1.8,2.9,2.2c1.7,0.6,3.4,0.9,5.2,0.8h2.2v-6.2
		H18c-1.2,0.1-2.4-0.1-3.5-0.7c-0.7-0.6-1.1-1.4-1.3-2.3c-0.3-2.9-0.3-5.8-0.3-8.6c0-5.1-0.6-8.6-1.7-10.8c-1-1.9-2.6-3.5-4.5-4.5
		c1.4-0.7,2.6-1.7,3.6-2.9c1.1-1.6,1.8-3.4,2.1-5.4c0.4-4,0.6-7.9,0.5-11.9c0-3.6,0.5-4.9,1-5.4c0.7-0.7,2-1.1,4.1-1.1h1.4V8.6h-2.2
		C15.5,8.5,13.7,8.8,12.1,9.3z"/>
	<path id="Tracé_10911" class="st2" d="M85,38.3c-2.6,0.1-5-1.7-5.6-4.3c-0.5-2.8-0.8-5.6-0.7-8.4c0-4.1-0.1-6.9-0.3-8.2
		c-0.2-2-0.9-3.9-2-5.6c-0.8-1.1-1.9-2-3.1-2.5c-1.6-0.5-3.4-0.8-5.1-0.7H66v6.2h1.4c2,0,3.4,0.4,4.1,1.1c0.5,0.5,1,1.9,1,5.4
		c-0.1,4,0,8,0.5,11.9c0.3,1.9,1,3.8,2.1,5.4c1,1.2,2.2,2.2,3.6,2.9c-1.9,1-3.5,2.6-4.5,4.5c-1.1,2.2-1.7,5.7-1.7,10.8
		c0.1,2.9,0,5.8-0.3,8.6c-0.1,0.9-0.6,1.7-1.3,2.3c-1.1,0.5-2.3,0.8-3.5,0.7H66v6.2h2.2c1.8,0.1,3.5-0.2,5.2-0.8
		c1.1-0.5,2.1-1.3,2.9-2.2c1-1.4,1.7-2.9,2-4.6c0.4-3.1,0.5-6.3,0.5-9.4c-0.1-2.8,0.1-5.7,0.7-8.4c0.3-1.2,1-2.4,2-3.2
		c1-0.7,2.3-1.1,3.5-1.1l0.4,0v-6.3L85,38.3z"/>
	<path id="Tracé_10912" class="st2" d="M36.5,12.8C39.5,9.1,42,5,44,0.6L44.3,0l-7.3,0l-0.1,0.3c-1.2,4.2-2.9,8.2-4.9,12L31.5,13
		l4.9-0.1L36.5,12.8z"/>
	<path id="Tracé_10913" class="st2" d="M57.7,0l-7.3,0l-0.1,0.3c-1.2,4.2-2.9,8.2-4.9,12L44.9,13l4.9-0.1l0.1-0.1
		c3-3.7,5.5-7.8,7.5-12.2L57.7,0z"/>
</g>
</svg>
